<svg width="24" height="28" viewBox="0 0 24 28" fill="none" xmlns="http://www.w3.org/2000/svg">
<path d="M2 6.72268V20.7204C2 22.729 2 23.7331 2.3402 24.3476C2.97074 25.4867 4.35262 26.1414 5.77279 25.9741C6.53901 25.8838 7.48273 25.3267 9.37017 24.2126L9.37469 24.2099C10.1228 23.7683 10.4969 23.5475 10.8883 23.425C11.607 23.2001 12.3913 23.2001 13.11 23.425C13.5022 23.5477 13.8777 23.7694 14.6289 24.2128C16.5163 25.327 17.4611 25.8836 18.2273 25.9739C19.6475 26.1412 21.0293 25.4867 21.6598 24.3476C22 23.7331 22 22.7286 22 20.7204V6.71783C22 5.06807 22 4.24196 21.637 3.61122C21.3175 3.05586 20.8062 2.60466 20.179 2.32169C19.466 2 18.5338 2 16.667 2H7.33366C5.46682 2 4.5327 2 3.81966 2.32169C3.19245 2.60466 2.68289 3.05586 2.36331 3.61122C2 4.24258 2 5.06969 2 6.72268Z" stroke="#7C6868" stroke-width="4" stroke-linecap="round" stroke-linejoin="round"/>
</svg>
