<svg width="24" height="24" viewBox="0 0 24 24" fill="none" xmlns="http://www.w3.org/2000/svg">
<path d="M16.8 6.49587e-09C17.7183 -5.94074e-05 18.6018 0.407451 19.2699 1.13915C19.938 1.87086 20.3401 2.87144 20.394 3.93617L20.4 4.18149V6.96915C21.3183 6.96909 22.2018 7.3766 22.8699 8.1083C23.538 8.84 23.9401 9.84058 23.994 10.9053L24 11.1506V16.726C24.0001 17.7925 23.6492 18.8188 23.0193 19.5948C22.3893 20.3708 21.5279 20.8379 20.6112 20.9005L20.4 20.9074V22.2539C20.4 23.6756 19.0284 24.4756 18.0552 23.6937L17.94 23.5933L15.1656 20.9074H10.8C9.91561 20.9075 9.06215 20.5294 8.4024 19.8453L8.2344 19.6586L6 21.6044C5.0508 22.4309 3.7128 21.7089 3.6072 20.3792L3.6 20.2105V18.1198C2.68175 18.1198 1.79818 17.7123 1.13009 16.9806C0.461992 16.2489 0.059871 15.2483 0.00600014 14.1836L5.59254e-09 13.9383V4.18149C-5.11461e-05 3.11491 0.35079 2.08863 0.98074 1.31262C1.61069 0.536615 2.47213 0.0695416 3.3888 0.00696931L3.6 6.49587e-09H16.8ZM20.4 9.75681H10.8C10.4817 9.75681 10.1765 9.90366 9.95147 10.165C9.72643 10.4264 9.6 10.781 9.6 11.1506V16.726C9.6 17.0956 9.72643 17.4501 9.95147 17.7115C10.1765 17.9729 10.4817 18.1198 10.8 18.1198H15.1656C15.727 18.1201 16.2705 18.3489 16.7016 18.7665L18.0072 20.0293C18.0462 19.5082 18.252 19.0231 18.5839 18.6696C18.9158 18.3161 19.3497 18.1199 19.8 18.1198H20.4C20.7183 18.1198 21.0235 17.9729 21.2485 17.7115C21.4736 17.4501 21.6 17.0956 21.6 16.726V11.1506C21.6 10.781 21.4736 10.4264 21.2485 10.165C21.0235 9.90366 20.7183 9.75681 20.4 9.75681ZM16.8 2.78766H3.6C3.28174 2.78766 2.97652 2.93451 2.75147 3.1959C2.52643 3.4573 2.4 3.81182 2.4 4.18149V13.9383C2.4 14.308 2.52643 14.6625 2.75147 14.9239C2.97652 15.1853 3.28174 15.3321 3.6 15.3321H4.2C4.67739 15.3321 5.13523 15.5524 5.47279 15.9445C5.81036 16.3366 6 16.8684 6 17.4229V18.1198L7.212 17.0647C7.20406 16.952 7.20006 16.839 7.2 16.726V11.1506C7.2 10.0416 7.57928 8.97806 8.25442 8.19388C8.92955 7.40969 9.84522 6.96915 10.8 6.96915H18V4.18149C18 3.81182 17.8736 3.4573 17.6485 3.1959C17.4235 2.93451 17.1183 2.78766 16.8 2.78766Z" fill="#7C6868"/>
</svg>
