<svg width="26" height="26" viewBox="0 0 26 26" fill="none" xmlns="http://www.w3.org/2000/svg">
<path d="M15.7652 0.881257C15.3605 0.672185 14.871 0.707886 14.4996 0.972899L5.91939 7.0964H1.625C0.951754 7.0964 0.40625 7.64191 0.40625 8.31515V17.6847C0.40625 18.3575 0.951754 18.9034 1.625 18.9034H5.91934L14.4996 25.0273C14.7099 25.1781 14.9582 25.2543 15.2074 25.2543C15.3978 25.2543 15.5898 25.2098 15.7652 25.1194C16.1714 24.9099 16.4261 24.4918 16.4261 24.0355V1.96472C16.4261 1.50808 16.1714 1.08993 15.7652 0.881257ZM2.84375 9.5339H5.09082V16.4659H2.84375V9.5339ZM13.9887 21.6686L7.52832 17.0571V8.94278L13.9887 4.332V21.6686Z" fill="#A1A1A1"/>
<path d="M23.7567 12.9999L25.2369 11.5199C25.713 11.0442 25.713 10.2726 25.2369 9.79651C24.7608 9.32044 23.9896 9.32043 23.5135 9.79651L22.0333 11.2766L20.5531 9.79651C20.077 9.32043 19.3058 9.32043 18.8297 9.79651C18.3536 10.2726 18.3536 11.0442 18.8297 11.5199L20.3099 12.9999L18.8297 14.4799C18.3536 14.956 18.3536 15.7272 18.8297 16.2033C19.0678 16.4413 19.3796 16.5603 19.6914 16.5603C20.0032 16.5603 20.3151 16.4413 20.5531 16.2033L22.0333 14.7232L23.5135 16.2033C23.7515 16.4413 24.0634 16.5603 24.3752 16.5603C24.687 16.5603 24.9989 16.4413 25.2369 16.2033C25.713 15.7272 25.713 14.956 25.2369 14.4799L23.7567 12.9999Z" fill="#A1A1A1"/>
</svg>
