<svg width="24" height="24" viewBox="0 0 24 24" fill="none" xmlns="http://www.w3.org/2000/svg">
<path d="M12 0C18.6273 0 24 5.37273 24 12C24 18.6273 18.6273 24 12 24C5.37273 24 0 18.6273 0 12C1.61077e-08 5.37273 5.37273 1.61072e-08 12 0ZM12.0713 16.3633C10.8427 16.3622 9.63162 16.6581 8.54199 17.2256C7.45238 17.7931 6.51591 18.6158 5.8125 19.623C7.56029 21.0462 9.74608 21.822 12 21.8184C14.2938 21.8219 16.516 21.0183 18.2773 19.5488C17.5709 18.5625 16.639 17.7591 15.5596 17.2051C14.4803 16.6511 13.2844 16.3623 12.0713 16.3633ZM15.1426 2.69922C13.6656 2.20029 12.0907 2.06061 10.5488 2.29102C9.00705 2.52143 7.54193 3.11554 6.27539 4.02441C5.00898 4.93326 3.97749 6.13084 3.26562 7.51758C2.55372 8.90448 2.18184 10.4411 2.18164 12C2.18164 14.28 2.96004 16.379 4.26367 18.0459C5.17941 16.8439 6.36055 15.8695 7.71484 15.1992C9.06911 14.5291 10.5603 14.1807 12.0713 14.1816C13.5628 14.18 15.0353 14.5191 16.376 15.1729C17.7167 15.8266 18.8904 16.7779 19.8076 17.9541C20.7527 16.7145 21.3891 15.2677 21.6641 13.7334C21.939 12.1989 21.8446 10.6207 21.3887 9.12988C20.9327 7.6391 20.1282 6.27835 19.042 5.16016C17.9558 4.04208 16.6194 3.19814 15.1426 2.69922ZM12 4.36328C13.1573 4.36328 14.2676 4.82329 15.0859 5.6416C15.9043 6.45994 16.3643 7.57023 16.3643 8.72754C16.3642 9.88467 15.9041 10.9942 15.0859 11.8125C14.2676 12.6308 13.1573 13.0908 12 13.0908C10.8428 13.0907 9.7333 12.6308 8.91504 11.8125C8.09679 10.9942 7.63679 9.88473 7.63672 8.72754C7.63672 7.57023 8.0967 6.45994 8.91504 5.6416C9.73328 4.82346 10.8429 4.36338 12 4.36328ZM12 6.5459C11.4216 6.54599 10.8671 6.77559 10.458 7.18457C10.0488 7.59374 9.81836 8.14888 9.81836 8.72754C9.81843 9.3061 10.0489 9.8614 10.458 10.2705C10.8671 10.6793 11.4217 10.9091 12 10.9092C12.5785 10.9092 13.1338 10.6795 13.543 10.2705C13.9521 9.8614 14.1825 9.3061 14.1826 8.72754C14.1826 8.14888 13.9521 7.59374 13.543 7.18457C13.1338 6.77543 12.5786 6.5459 12 6.5459Z" fill="#D9D9D9"/>
</svg>
