<svg width="24" height="28" viewBox="0 0 24 28" fill="none" xmlns="http://www.w3.org/2000/svg">
<path d="M14.6965 19.3333H21.4371V26M9.30405 8.66667H2.56347V2M22 10.0045C21.2441 8.15421 19.9786 6.55072 18.3472 5.3763C16.7159 4.20189 14.7844 3.50336 12.7718 3.36068C10.7592 3.21799 8.74602 3.63654 6.96196 4.56882C5.17791 5.5011 3.6943 6.91005 2.67932 8.63483M2 17.9961C2.75587 19.8464 4.02141 21.4499 5.65278 22.6243C7.28415 23.7987 9.21761 24.4964 11.2302 24.6391C13.2428 24.7817 15.2543 24.3633 17.0384 23.431C18.8224 22.4987 20.305 21.09 21.32 19.3652" stroke="black" stroke-width="3" stroke-linecap="round" stroke-linejoin="round"/>
</svg>
