<svg width="35" height="30" viewBox="0 0 35 30" fill="none" xmlns="http://www.w3.org/2000/svg">
<path d="M14.3307 1.94044C14.465 0.580278 15.9309 -0.540355 17.4092 0.27745C20.4823 2.02085 23.3824 4.00719 26.1871 6.13041C29.6488 8.77886 32.427 11.2751 34.3945 13.2682C35.2475 14.1357 35.1681 15.5061 34.3521 16.3342C32.4039 18.2866 30.343 20.1305 28.1793 21.8569C24.7565 24.5721 21.2117 27.2034 17.3527 29.313C16.0439 30.0281 14.6257 29.2103 14.3731 27.9425L14.3431 27.7492L13.9422 21.6345C10.7348 21.6995 7.62987 22.7671 5.14663 24.7534L4.6786 25.1333L4.45252 25.3112L4.01628 25.6397L3.80434 25.7902L3.39812 26.064C3.27184 26.1442 3.14345 26.2212 3.01309 26.295L2.64926 26.4849C0.943137 27.301 0 26.579 0 23.342C0 15.8072 5.73123 9.10222 13.4794 8.08595L13.9369 8.03292L14.3307 1.94044ZM17.7024 4.46229L17.3633 10.4025C17.3518 10.6056 17.2661 10.798 17.1214 10.9454C16.9767 11.0928 16.7826 11.1854 16.5738 11.2066L14.17 11.4496C8.75669 12.0757 4.46136 16.175 3.66481 21.5336C6.31228 19.6424 9.45454 18.509 12.7341 18.2623L13.4353 18.223L16.4448 18.1614C16.6738 18.1566 16.8957 18.2381 17.0637 18.3888C17.2318 18.5395 17.3328 18.7475 17.3456 18.9689L17.6935 25.1213C20.5247 23.3745 23.2234 21.3642 25.931 19.2187C27.6792 17.811 29.3628 16.3297 30.9769 14.779L30.5213 14.341L29.5393 13.4291C27.7633 11.817 25.9165 10.2798 24.0041 8.82164C21.9762 7.27232 19.8733 5.81755 17.7024 4.46229Z" fill="#7C6868"/>
</svg>
