<svg width="14" height="12" viewBox="0 0 14 12" fill="none" xmlns="http://www.w3.org/2000/svg">
<path d="M10.6 10.0476C12.04 9.37143 13 7.91429 13 6.2381C13 4.55238 12.04 3.13333 10.6 2.42857V10.0476Z" fill="black"/>
<path d="M1 4.33333H4.36L7.72 1V11L4.36 7.66667H1V4.33333Z" fill="black" fill-opacity="0.3"/>
<path d="M10.6 10.0476H9.6V11.622L11.025 10.9528L10.6 10.0476ZM10.6 2.42857L11.0396 1.53037L9.6 0.825812V2.42857H10.6ZM1 4.33333V3.33333C0.447715 3.33333 0 3.78105 0 4.33333H1ZM4.36 4.33333V5.33333C4.62384 5.33333 4.87698 5.22907 5.06428 5.04325L4.36 4.33333ZM7.72 1H8.72C8.72 0.596263 8.47722 0.232131 8.10452 0.0768846C7.73183 -0.0783617 7.30234 0.005736 7.01572 0.290082L7.72 1ZM7.72 11L7.01572 11.7099C7.30234 11.9943 7.73183 12.0784 8.10452 11.9231C8.47722 11.7679 8.72 11.4037 8.72 11H7.72ZM4.36 7.66667L5.06428 6.95675C4.87698 6.77093 4.62384 6.66667 4.36 6.66667V7.66667ZM1 7.66667H0C0 8.21895 0.447715 8.66667 1 8.66667L1 7.66667ZM10.6 10.0476L11.025 10.9528C12.8131 10.1132 14 8.30508 14 6.2381H13H12C12 7.5235 11.2669 8.6297 10.175 9.14245L10.6 10.0476ZM13 6.2381H14C14 4.14979 12.8035 2.39367 11.0396 1.53037L10.6 2.42857L10.1604 3.32677C11.2765 3.873 12 4.95497 12 6.2381H13ZM10.6 2.42857H9.6V10.0476H10.6H11.6V2.42857H10.6ZM1 4.33333V5.33333H4.36V4.33333V3.33333H1V4.33333ZM4.36 4.33333L5.06428 5.04325L8.42428 1.70992L7.72 1L7.01572 0.290082L3.65572 3.62342L4.36 4.33333ZM7.72 1H6.72V11H7.72H8.72V1H7.72ZM7.72 11L8.42428 10.2901L5.06428 6.95675L4.36 7.66667L3.65572 8.37658L7.01572 11.7099L7.72 11ZM4.36 7.66667V6.66667H1V7.66667V8.66667H4.36V7.66667ZM1 7.66667H2V4.33333H1H0V7.66667H1Z" fill="black"/>
</svg>
